<svg width="26" height="26" viewBox="0 0 26 26" fill="none" xmlns="http://www.w3.org/2000/svg">
<path id="Vector (Stroke)" fill-rule="evenodd" clip-rule="evenodd" d="M6.94105 0.324188C7.24525 0.654063 7.22445 1.16809 6.89457 1.4723L3.37035 4.7223C3.05887 5.00954 2.57893 5.0092 2.26786 4.7215L0.510829 3.0965C0.181392 2.79182 0.161323 2.27777 0.466005 1.94833C0.770687 1.61889 1.28474 1.59882 1.61418 1.90351L2.82033 3.01902L5.79294 0.277712C6.12281 -0.0264951 6.63684 -0.00568751 6.94105 0.324188ZM9.1875 2.5C9.1875 2.05127 9.55127 1.6875 10 1.6875H18.9375C19.3862 1.6875 19.75 2.05127 19.75 2.5C19.75 2.94874 19.3862 3.3125 18.9375 3.3125H10C9.55127 3.3125 9.1875 2.94874 9.1875 2.5ZM6.94105 6.82419C7.24525 7.15406 7.22445 7.66809 6.89457 7.9723L3.37035 11.2223C3.05887 11.5095 2.57893 11.5092 2.26786 11.2215L0.510829 9.5965C0.181392 9.29182 0.161323 8.77777 0.466005 8.44833C0.770687 8.11889 1.28474 8.09882 1.61418 8.40351L2.82033 9.51902L5.79294 6.77771C6.12281 6.4735 6.63684 6.49431 6.94105 6.82419ZM9.1875 9C9.1875 8.55127 9.55127 8.1875 10 8.1875H18.9375C19.3862 8.1875 19.75 8.55127 19.75 9C19.75 9.44874 19.3862 9.8125 18.9375 9.8125H10C9.55127 9.8125 9.1875 9.44874 9.1875 9ZM6.94105 13.3242C7.24525 13.6541 7.22445 14.1681 6.89457 14.4723L3.37035 17.7223C3.05887 18.0095 2.57893 18.0092 2.26786 17.7215L0.510829 16.0965C0.181392 15.7918 0.161323 15.2778 0.466005 14.9483C0.770687 14.6189 1.28474 14.5988 1.61418 14.9035L2.82033 16.019L5.79294 13.2777C6.12281 12.9735 6.63684 12.9943 6.94105 13.3242ZM9.1875 15.5C9.1875 15.0513 9.55127 14.6875 10 14.6875H18.9375C19.3862 14.6875 19.75 15.0513 19.75 15.5C19.75 15.9487 19.3862 16.3125 18.9375 16.3125H10C9.55127 16.3125 9.1875 15.9487 9.1875 15.5Z" fill="#000"/>
</svg>
