<svg class="aperture-svg" width="26" height="26" viewBox="0 0 26 26" fill="none" xmlns="http://www.w3.org/2000/svg">
<g id="L/Aperture">
<path id="Vector (Stroke)" fill-rule="evenodd" clip-rule="evenodd" d="M4.99058 9.02967C4.39652 10.2258 4.0625 11.5739 4.0625 13C4.0625 14.2084 4.3023 15.3607 4.73691 16.4121L8.59593 11.8698C8.63124 11.8166 8.67291 11.7673 8.72033 11.7233L10.1997 9.98208L4.99058 9.02967ZM5.918 7.54729L11.8385 8.62976C11.8644 8.63322 11.8903 8.63794 11.9159 8.64393L14.2149 9.06427L12.4338 4.08014C9.78245 4.24588 7.44447 5.56764 5.918 7.54729ZM14.1808 4.13981L17.0169 12.0762L20.4404 8.04654C19.0448 5.95444 16.7903 4.48423 14.1808 4.13981ZM21.2631 9.58795L17.4041 14.1302C17.3688 14.1834 17.3271 14.2327 17.2797 14.2766L15.8003 16.0179L21.0094 16.9703C21.6035 15.7742 21.9375 14.4261 21.9375 13C21.9375 11.7916 21.6977 10.6393 21.2631 9.58795ZM20.082 18.4527L14.1616 17.3702C14.1356 17.3668 14.1097 17.3621 14.0841 17.3561L11.7851 16.9357L13.5662 21.9199C16.2175 21.7541 18.5555 20.4324 20.082 18.4527ZM11.8192 21.8602L8.98313 13.9238L5.55963 17.9535C6.95523 20.0456 9.20973 21.5158 11.8192 21.8602ZM10.1978 12.494L11.1535 15.1683L13.9547 15.6805L15.8022 13.506L14.8465 10.8317L12.0453 10.3195L10.1978 12.494ZM2.4375 13C2.4375 7.16649 7.16649 2.4375 13 2.4375C18.8335 2.4375 23.5625 7.16649 23.5625 13C23.5625 18.8335 18.8335 23.5625 13 23.5625C7.16649 23.5625 2.4375 18.8335 2.4375 13Z" fill="#000"/>
</g>
</svg>
