<svg width="24" height="24" viewBox="0 0 24 24" fill="none" xmlns="http://www.w3.org/2000/svg">
<path d="M21 19.125H19.875V3.75C19.875 3.65054 19.8355 3.55516 19.7652 3.48484C19.6948 3.41451 19.5995 3.375 19.5 3.375H14.25C14.1505 3.375 14.0552 3.41451 13.9848 3.48484C13.9145 3.55516 13.875 3.65054 13.875 3.75V7.875H9C8.90054 7.875 8.80516 7.91451 8.73483 7.98483C8.66451 8.05516 8.625 8.15054 8.625 8.25V12.375H4.5C4.40054 12.375 4.30516 12.4145 4.23484 12.4848C4.16451 12.5552 4.125 12.6505 4.125 12.75V19.125H3C2.90054 19.125 2.80516 19.1645 2.73484 19.2348C2.66451 19.3052 2.625 19.4005 2.625 19.5C2.625 19.5995 2.66451 19.6948 2.73484 19.7652C2.80516 19.8355 2.90054 19.875 3 19.875H21C21.0995 19.875 21.1948 19.8355 21.2652 19.7652C21.3355 19.6948 21.375 19.5995 21.375 19.5C21.375 19.4005 21.3355 19.3052 21.2652 19.2348C21.1948 19.1645 21.0995 19.125 21 19.125ZM14.625 4.125H19.125V19.125H14.625V4.125ZM9.375 8.625H13.875V19.125H9.375V8.625ZM4.875 13.125H8.625V19.125H4.875V13.125Z" fill="#BD2C4B"/>
</svg>
