<svg width="24" height="24" viewBox="0 0 24 24" fill="none" xmlns="http://www.w3.org/2000/svg">
<g clip-path="url(#clip0_4525_267)">
<path d="M22.4969 8.00007C24.9969 14.9996 20.1638 21.6155 14.3164 22.756C9.56376 23.6829 5.23713 21.9099 3.12659 18.2141M1.99729 15.9998C-1 8.5 3.83857 2.38501 9.68706 1.24432C14.4386 0.317578 18.7631 2.09103 20.8758 5.78644" stroke="#5d5d5d" stroke-width="1.5" stroke-linecap="round" stroke-linejoin="round"/>
<path d="M7.00102 19.4996L3.12752 18.2142L3.4985 22.5M17.001 4.99964L20.8767 5.78661L20.501 1.49964" stroke="#5d5d5d" stroke-width="1.5" stroke-linecap="round" stroke-linejoin="round"/>
<path d="M18.4 9H17.1C16.7686 9 16.5 9.26863 16.5 9.6V15.4C16.5 15.7314 16.7686 16 17.1 16H18.4C18.7314 16 19 15.7314 19 15.4V9.6C19 9.26863 18.7314 9 18.4 9Z" fill="#5d5d5d"/>
<path d="M14.9 12H13.6C13.2686 12 13 12.2686 13 12.6V15.4C13 15.7314 13.2686 16 13.6 16H14.9C15.2314 16 15.5 15.7314 15.5 15.4V12.6C15.5 12.2686 15.2314 12 14.9 12Z" fill="#5d5d5d"/>
<path d="M11.4 11H10.1C9.76863 11 9.5 11.2686 9.5 11.6V15.4C9.5 15.7314 9.76863 16 10.1 16H11.4C11.7314 16 12 15.7314 12 15.4V11.6C12 11.2686 11.7314 11 11.4 11Z" fill="#5d5d5d"/>
<path d="M7.9 13H6.6C6.26863 13 6 13.2686 6 13.6V15.4C6 15.7314 6.26863 16 6.6 16H7.9C8.23137 16 8.5 15.7314 8.5 15.4V13.6C8.5 13.2686 8.23137 13 7.9 13Z" fill="#5d5d5d"/>
</g>
<defs>
<clipPath id="clip0_4525_267">
<rect width="24" height="24" fill="#5d5d5d"/>
</clipPath>
</defs>
</svg>
