<svg width="26" height="26" viewBox="0 0 26 26" fill="none" xmlns="http://www.w3.org/2000/svg">
<g id="L/ChartPieSlice">
<path id="Vector (Stroke)" fill-rule="evenodd" clip-rule="evenodd" d="M12.4256 2.67544C12.578 2.52307 12.7847 2.43748 13.0002 2.4375C14.851 2.43771 16.6693 2.92424 18.2729 3.84836C19.8765 4.77248 21.2091 6.10174 22.1373 7.703C23.0654 9.30425 23.5566 11.1213 23.5615 12.9721C23.5663 14.8229 23.0848 16.6425 22.1651 18.2487C21.2454 19.8548 19.9198 21.1911 18.3212 22.1237C16.7225 23.0562 14.9068 23.5524 13.056 23.5623C11.2052 23.5723 9.38427 23.0958 7.77561 22.1806C6.16694 21.2653 4.82701 19.9434 3.89004 18.3473C3.87476 18.3212 3.86109 18.2947 3.84901 18.2678C3.63537 17.8813 3.76981 17.3933 4.15387 17.1714L12.1876 12.531V3.25C12.1876 3.0345 12.2732 2.82782 12.4256 2.67544ZM13.393 13.7114C13.4017 13.7066 13.4102 13.7016 13.4187 13.6965L21.1128 9.25228C21.6508 10.417 21.9331 11.687 21.9365 12.9764C21.9406 14.5425 21.5332 16.0821 20.755 17.4412C19.9767 18.8002 18.8551 19.9309 17.5024 20.72C16.1496 21.5091 14.6133 21.9289 13.0472 21.9374C11.4812 21.9458 9.94038 21.5426 8.5792 20.7682C7.43624 20.1179 6.45361 19.225 5.69854 18.1558L13.393 13.7114ZM20.3001 7.8451L13.8126 11.5924V4.09961C15.095 4.21683 16.3403 4.61015 17.4615 5.2563C18.5869 5.90484 19.5546 6.7892 20.3001 7.8451ZM10.2194 3.14536C10.4347 3.29767 10.5626 3.54493 10.5626 3.80859V11.1211C10.5626 11.4111 10.408 11.6791 10.157 11.8244L3.81947 15.4908C3.59132 15.6228 3.31331 15.6359 3.07375 15.526C2.83418 15.416 2.66283 15.1967 2.6141 14.9377C2.49384 14.2983 2.43474 13.649 2.4376 12.9984C2.43665 10.8145 3.11331 8.68408 4.3743 6.90097C5.63569 5.11728 7.4196 3.76906 9.47983 3.04236C9.72848 2.95466 10.0042 2.99306 10.2194 3.14536ZM8.9376 5.03917C7.65289 5.69364 6.54028 6.65251 5.70106 7.83923C4.63391 9.34824 4.06142 11.1513 4.0626 12.9995L4.06259 13.0037C4.06188 13.1582 4.06532 13.3127 4.0729 13.4668L8.9376 10.6525V5.03917Z" fill="#000"/>
</g>
</svg>
