<svg width="26" height="26" viewBox="0 0 26 26" fill="none" xmlns="http://www.w3.org/2000/svg">
<g id="L/ChartLine">
<path id="Vector (Stroke)" fill-rule="evenodd" clip-rule="evenodd" d="M3.25001 4.0625C3.69874 4.0625 4.06251 4.42627 4.06251 4.875V14.4594L9.21498 9.95103C9.50391 9.69822 9.93037 9.68214 10.2375 9.9125L16.2106 14.3923L22.215 9.13853C22.5527 8.84304 23.066 8.87726 23.3615 9.21496C23.657 9.55267 23.6228 10.066 23.285 10.3615L16.785 16.049C16.4961 16.3018 16.0697 16.3179 15.7625 16.0875L9.7894 11.6077L4.06251 16.6187V20.3125H22.75C23.1987 20.3125 23.5625 20.6763 23.5625 21.125C23.5625 21.5737 23.1987 21.9375 22.75 21.9375H3.25001C2.80128 21.9375 2.43751 21.5737 2.43751 21.125V16.2546C2.4375 16.2518 2.4375 16.2489 2.43751 16.2461V4.875C2.43751 4.42627 2.80128 4.0625 3.25001 4.0625Z" fill="#000"/>
</g>
</svg>
