<svg width="16" height="16" viewBox="0 0 16 16" fill="none" xmlns="http://www.w3.org/2000/svg">
<g id="L/CheckCircle">
<path id="Vector (Stroke)" fill-rule="evenodd" clip-rule="evenodd" d="M8 2.5C4.96243 2.5 2.5 4.96243 2.5 8C2.5 11.0376 4.96243 13.5 8 13.5C11.0376 13.5 13.5 11.0376 13.5 8C13.5 4.96243 11.0376 2.5 8 2.5ZM1.5 8C1.5 4.41015 4.41015 1.5 8 1.5C11.5899 1.5 14.5 4.41015 14.5 8C14.5 11.5899 11.5899 14.5 8 14.5C4.41015 14.5 1.5 11.5899 1.5 8ZM11.1118 6.15486C11.3024 6.35467 11.2949 6.67116 11.0951 6.86178L7.42639 10.3618C7.23308 10.5462 6.92895 10.5461 6.73581 10.3615L4.90456 8.61148C4.70492 8.4207 4.69774 8.1042 4.88852 7.90456C5.0793 7.70492 5.3958 7.69774 5.59544 7.88852L7.08154 9.30868L10.4049 6.13822C10.6047 5.94761 10.9212 5.95506 11.1118 6.15486Z" fill="#329A5C"/>
</g>
</svg>
