<svg width="24" height="24" viewBox="0 0 24 24" fill="none" xmlns="http://www.w3.org/2000/svg">
<g clip-path="url(#clip0_4520_321)">
<mask id="path-1-inside-1_4520_321" fill="white">
<path d="M24 16.5001C24 12.8835 22.7357 9.41508 20.4853 6.85777C18.2348 4.30045 15.1826 2.86377 12 2.86377C8.8174 2.86377 5.76516 4.30045 3.51472 6.85777C1.26428 9.41508 4.80559e-07 12.8835 0 16.5001L12 16.5001H24Z"/>
</mask>
<path d="M24 16.5001C24 12.8835 22.7357 9.41508 20.4853 6.85777C18.2348 4.30045 15.1826 2.86377 12 2.86377C8.8174 2.86377 5.76516 4.30045 3.51472 6.85777C1.26428 9.41508 4.80559e-07 12.8835 0 16.5001L12 16.5001H24Z" stroke="#BD2C4B" stroke-width="1.6" mask="url(#path-1-inside-1_4520_321)"/>
<path d="M13.5432 15.9547L6.82549 6.89174M5.25394 12.1365H1.63672M11.993 6.89174V2.86377M18.7394 12.1365H22.3566" stroke="#BD2C4B" stroke-width="0.8"/>
</g>
<defs>
<clipPath id="clip0_4520_321">
<rect width="24" height="24" fill="white"/>
</clipPath>
</defs>
</svg>
