<svg width="19" height="18" viewBox="0 0 19 18" fill="none" xmlns="http://www.w3.org/2000/svg">
<path fill-rule="evenodd" clip-rule="evenodd" d="M8.65625 2.8125C5.70498 2.8125 3.3125 5.20498 3.3125 8.15625C3.3125 11.1075 5.70498 13.5 8.65625 13.5C11.6075 13.5 14 11.1075 14 8.15625C14 5.20498 11.6075 2.8125 8.65625 2.8125ZM2.1875 8.15625C2.1875 4.58366 5.08366 1.6875 8.65625 1.6875C12.2288 1.6875 15.125 4.58366 15.125 8.15625C15.125 9.74003 14.5558 11.1909 13.6109 12.3154L16.6477 15.3523C16.8674 15.5719 16.8674 15.9281 16.6477 16.1477C16.4281 16.3674 16.0719 16.3674 15.8523 16.1477L12.8154 13.1109C11.6909 14.0558 10.24 14.625 8.65625 14.625C5.08366 14.625 2.1875 11.7288 2.1875 8.15625Z" fill="#4D4D4D"/>
<path fill-rule="evenodd" clip-rule="evenodd" d="M7.53125 7.59375C7.53125 7.28309 7.78309 7.03125 8.09375 7.03125H8.65625C8.96691 7.03125 9.21875 7.28309 9.21875 7.59375V10.9688C9.52941 10.9688 9.78125 11.2206 9.78125 11.5312C9.78125 11.8419 9.52941 12.0938 9.21875 12.0938H8.65625C8.34559 12.0938 8.09375 11.8419 8.09375 11.5312V8.15625C7.78309 8.15625 7.53125 7.90441 7.53125 7.59375Z" fill="#4D4D4D"/>
<path d="M8.51562 5.90625C8.98162 5.90625 9.35938 5.52849 9.35938 5.0625C9.35938 4.59651 8.98162 4.21875 8.51562 4.21875C8.04963 4.21875 7.67188 4.59651 7.67188 5.0625C7.67188 5.52849 8.04963 5.90625 8.51562 5.90625Z" fill="#4D4D4D"/>
</svg>
