<svg width="26" height="26" viewBox="0 0 26 26" fill="none" xmlns="http://www.w3.org/2000/svg">
<g id="L/Gauge">
<path id="Vector" fill-rule="evenodd" clip-rule="evenodd" d="M17.3227 5.72824C15.9377 5.15921 14.4539 4.86924 12.9565 4.87496C7.79819 4.89307 3.47746 8.38776 2.09138 13.1077C2.05196 13.242 2.01491 13.3772 1.98028 13.5134C1.74827 14.4258 1.625 15.3805 1.625 16.3617V18.6875C1.625 19.1184 1.7962 19.5318 2.10095 19.8365C2.4057 20.1413 2.81902 20.3125 3.25 20.3125H10.5625H22.75C23.181 20.3125 23.5943 20.1413 23.899 19.8365C24.2038 19.5318 24.375 19.1184 24.375 18.6875V16.25C24.375 15.2823 24.2515 14.3208 24.0092 13.3884C23.9954 13.3353 23.9812 13.2823 23.9667 13.2294C23.8411 12.7737 23.6871 12.3252 23.505 11.8868C22.9306 10.5039 22.0888 9.24796 21.0279 8.19112C19.967 7.13427 18.7078 6.29731 17.3227 5.72824ZM3.25 16.3617V18.6875H10.101L16.8039 9.95598C17.0772 9.60003 17.5873 9.533 17.9432 9.80625C18.2991 10.0795 18.3662 10.5896 18.0929 10.9455L12.1496 18.6875H22.75V16.25C22.75 15.6694 22.6982 15.0914 22.5958 14.5227L20.2687 15.1457C19.8353 15.2618 19.3898 15.0045 19.2737 14.571C19.1577 14.1376 19.415 13.6921 19.8485 13.576L22.1757 12.9529C22.1222 12.8041 22.065 12.6565 22.0043 12.5101C21.5119 11.3247 20.7904 10.2482 19.881 9.34237C18.9717 8.4365 17.8924 7.71911 16.7052 7.23133C15.7808 6.85155 14.8051 6.61679 13.8125 6.53379V8.93746C13.8125 9.38619 13.4487 9.74996 13 9.74996C12.5513 9.74996 12.1875 9.38619 12.1875 8.93746V6.53357C8.34237 6.85505 5.13267 9.44648 3.84967 12.9597L6.15154 13.576C6.58501 13.6921 6.84232 14.1376 6.72626 14.571C6.61021 15.0045 6.16473 15.2618 5.73127 15.1457L3.41985 14.5269C3.30834 15.1219 3.25 15.7353 3.25 16.3617Z" fill="#000"/>
</g>
</svg>
