<svg width="26" height="26" viewBox="0 0 26 26" fill="none" xmlns="http://www.w3.org/2000/svg">
<g id="L/Hexagon">
<path id="Vector (Stroke)" fill-rule="evenodd" clip-rule="evenodd" d="M7.2885 2.4375L11.4034 2.4375C11.6107 2.43863 11.8133 2.49535 11.9906 2.60086C12.1677 2.70632 12.3128 2.8564 12.4124 3.0347L12.4131 3.03599L14.4758 6.74294C14.5739 6.91716 14.625 7.11345 14.625 7.3125C14.625 7.51154 14.5739 7.70781 14.4758 7.88202L12.4124 11.5903C12.3128 11.7686 12.1677 11.9187 11.9906 12.0241C11.8133 12.1297 11.6107 12.1864 11.4034 12.1875L11.399 12.1875L7.28407 12.1875C7.07677 12.1864 6.87421 12.1297 6.69693 12.0241C6.51977 11.9187 6.3747 11.7686 6.27507 11.5903L4.21168 7.88203C4.11362 7.70782 4.0625 7.51154 4.0625 7.3125C4.0625 7.11347 4.11361 6.91721 4.21166 6.743L6.27507 3.0347C6.37471 2.8564 6.51977 2.70632 6.69693 2.60086C6.8742 2.49535 7.07676 2.43864 7.28407 2.43751L7.2885 2.4375ZM7.5628 4.0625L5.75439 7.3125L7.5628 10.5625H11.1247L12.9331 7.3125L11.1247 4.0625L7.5628 4.0625ZM16.6278 8.12501L16.6323 8.12499L20.7472 8.125C20.9545 8.12613 21.157 8.18285 21.3343 8.28836C21.5115 8.39382 21.6565 8.5439 21.7562 8.7222L21.7569 8.72349L23.8196 12.4305C23.9176 12.6047 23.9688 12.801 23.9688 13C23.9688 13.199 23.9176 13.3953 23.8196 13.5695L21.7569 17.2765L21.7562 17.2778C21.6565 17.4561 21.5115 17.6062 21.3343 17.7116C21.157 17.8172 20.9545 17.8739 20.7472 17.875L20.7427 17.875L16.6278 17.875C16.4205 17.8739 16.2179 17.8171 16.0407 17.7116C15.8635 17.6062 15.7185 17.4561 15.6188 17.2778L13.5554 13.5695C13.4574 13.3953 13.4062 13.199 13.4062 13C13.4062 12.801 13.4574 12.6047 13.5554 12.4305L15.6188 8.7222C15.7185 8.5439 15.8635 8.39382 16.0407 8.28836C16.2179 8.18285 16.4205 8.12614 16.6278 8.12501ZM16.9065 9.75L15.0981 13L16.9065 16.25L20.4685 16.25L22.2769 13L20.4685 9.75H16.9065ZM7.2885 13.8125H11.4034C11.6107 13.8136 11.8133 13.8703 11.9906 13.9759C12.1677 14.0813 12.3128 14.2314 12.4124 14.4097L12.4131 14.411L14.4759 18.1181C14.5739 18.2923 14.625 18.4885 14.625 18.6875C14.625 18.8865 14.5739 19.0828 14.4758 19.257L12.4124 22.9653C12.3128 23.1436 12.1677 23.2937 11.9906 23.3991C11.8133 23.5047 11.6107 23.5614 11.4034 23.5625L11.399 23.5625L7.28407 23.5625C7.07675 23.5614 6.87419 23.5046 6.69693 23.3991C6.51977 23.2937 6.37471 23.1436 6.27507 22.9653L4.21165 19.257C4.11361 19.0828 4.0625 18.8865 4.0625 18.6875C4.0625 18.4885 4.11361 18.2922 4.21166 18.118L6.27507 14.4097C6.3747 14.2314 6.51977 14.0813 6.69693 13.9759C6.8742 13.8703 7.07676 13.8136 7.28407 13.8125L7.2885 13.8125ZM7.5628 15.4375L5.75439 18.6875L7.5628 21.9375L11.1247 21.9375L12.9331 18.6875L11.1247 15.4375H7.5628Z" fill="#000"/>
</g>
</svg>
