<svg width="26" height="26" viewBox="0 0 26 26" fill="none" xmlns="http://www.w3.org/2000/svg">
<g id="L/LineSegments">
<path id="Vector (Stroke)" fill-rule="evenodd" clip-rule="evenodd" d="M21.9375 4.0625C21.04 4.0625 20.3125 4.79004 20.3125 5.6875C20.3125 6.28849 20.6388 6.81329 21.1238 7.09442C21.1374 7.10078 21.1508 7.10754 21.1642 7.11471C21.179 7.12266 21.1935 7.13101 21.2076 7.13972C21.427 7.25026 21.675 7.3125 21.9375 7.3125C22.835 7.3125 23.5625 6.58496 23.5625 5.6875C23.5625 4.79004 22.835 4.0625 21.9375 4.0625ZM21.1579 8.84338C21.4076 8.90488 21.6688 8.9375 21.9375 8.9375C23.7324 8.9375 25.1875 7.48243 25.1875 5.6875C25.1875 3.89257 23.7324 2.4375 21.9375 2.4375C20.1426 2.4375 18.6875 3.89257 18.6875 5.6875C18.6875 6.62927 19.0881 7.47747 19.7281 8.07104L17.0296 13.0941C16.7799 13.0326 16.5187 13 16.25 13C15.6473 13 15.0829 13.1641 14.599 13.45L12.55 11.401C12.8359 10.9171 13 10.3527 13 9.75C13 7.95507 11.5449 6.5 9.75 6.5C7.95507 6.5 6.5 7.95507 6.5 9.75C6.5 10.6918 6.90057 11.54 7.54063 12.1335L4.84214 17.1566C4.59238 17.0951 4.33125 17.0625 4.0625 17.0625C2.26757 17.0625 0.8125 18.5176 0.8125 20.3125C0.8125 22.1074 2.26757 23.5625 4.0625 23.5625C5.85743 23.5625 7.3125 22.1074 7.3125 20.3125C7.3125 19.3707 6.91193 18.5225 6.27187 17.929L8.97036 12.9059C9.22012 12.9674 9.48125 13 9.75 13C10.3527 13 10.9171 12.8359 11.401 12.55L13.45 14.599C13.1641 15.0829 13 15.6473 13 16.25C13 18.0449 14.4551 19.5 16.25 19.5C18.0449 19.5 19.5 18.0449 19.5 16.25C19.5 15.3082 19.0994 14.46 18.4594 13.8665L21.1579 8.84338ZM16.98 14.7978C16.9941 14.8065 17.0085 14.8148 17.0233 14.8228C17.0366 14.83 17.0501 14.8367 17.0637 14.8431C17.5487 15.1242 17.875 15.649 17.875 16.25C17.875 17.1475 17.1475 17.875 16.25 17.875C15.3525 17.875 14.625 17.1475 14.625 16.25C14.625 15.3525 15.3525 14.625 16.25 14.625C16.5125 14.625 16.7605 14.6872 16.98 14.7978ZM9.02005 11.2022C9.23952 11.3128 9.48749 11.375 9.75 11.375C10.6475 11.375 11.375 10.6475 11.375 9.75C11.375 8.85254 10.6475 8.125 9.75 8.125C8.85254 8.125 8.125 8.85254 8.125 9.75C8.125 10.351 8.45126 10.8758 8.93633 11.1569C8.94989 11.1633 8.96335 11.17 8.9767 11.1772C8.9915 11.1852 9.00595 11.1935 9.02005 11.2022ZM4.79246 18.8603C4.80655 18.869 4.821 18.8773 4.8358 18.8853C4.84915 18.8925 4.86261 18.8992 4.87616 18.9056C5.36124 19.1867 5.6875 19.7115 5.6875 20.3125C5.6875 21.21 4.95996 21.9375 4.0625 21.9375C3.16504 21.9375 2.4375 21.21 2.4375 20.3125C2.4375 19.415 3.16504 18.6875 4.0625 18.6875C4.32501 18.6875 4.57298 18.7497 4.79246 18.8603Z" fill="#000"/>
</g>
</svg>
