<svg width="26" height="26" viewBox="0 0 26 26" fill="none" xmlns="http://www.w3.org/2000/svg">
<g id="L/Mountains">
<path id="Vector (Stroke)" fill-rule="evenodd" clip-rule="evenodd" d="M13.8125 4.0625C13.8125 3.61377 14.1763 3.25 14.625 3.25H18.2813C18.73 3.25 19.0938 3.61377 19.0938 4.0625V6.5C19.0938 6.94873 18.73 7.3125 18.2813 7.3125H15.4375V8.69149L23.426 20.6743C23.5923 20.9236 23.6078 21.2442 23.4664 21.5084C23.325 21.7726 23.0497 21.9375 22.75 21.9375H3.25C2.9444 21.9375 2.66465 21.766 2.52597 21.4937C2.3873 21.2214 2.41316 20.8943 2.59291 20.6471L9.09291 11.7096C9.2458 11.4994 9.49006 11.375 9.75 11.375C10.01 11.375 10.2542 11.4994 10.4071 11.7096L11.1341 12.7092L13.8125 8.69149V4.0625ZM14.625 10.4023L11.8391 14.5811C11.6917 14.8023 11.4454 14.9373 11.1796 14.9428C10.9139 14.9482 10.6623 14.8233 10.5059 14.6083L9.75 13.5689L4.84557 20.3125H21.2318L14.625 10.4023ZM15.4375 5.6875H17.4688V4.875H15.4375V5.6875Z" fill="#000"/>
</g>
</svg>
