<svg width="26" height="26" viewBox="0 0 26 26" fill="none" xmlns="http://www.w3.org/2000/svg">
<g id="L/PresentationChart">
<path id="Vector (Stroke)" fill-rule="evenodd" clip-rule="evenodd" d="M13 1.625C13.4487 1.625 13.8125 1.98877 13.8125 2.4375V4.0625H21.9375C22.835 4.0625 23.5625 4.79004 23.5625 5.6875V17.875C23.5625 18.7725 22.835 19.5 21.9375 19.5H17.9405L20.1345 22.2424C20.4148 22.5928 20.358 23.1041 20.0076 23.3845C19.6572 23.6648 19.1459 23.608 18.8655 23.2576L15.8595 19.5H10.1405L7.13446 23.2576C6.85414 23.608 6.34284 23.6648 5.99244 23.3845C5.64204 23.1041 5.58522 22.5928 5.86554 22.2424L8.05949 19.5H4.0625C3.16504 19.5 2.4375 18.7725 2.4375 17.875V5.6875C2.4375 4.79004 3.16504 4.0625 4.0625 4.0625H12.1875V2.4375C12.1875 1.98877 12.5513 1.625 13 1.625ZM4.0625 5.6875V17.875H9.74347C9.74817 17.875 9.75286 17.875 9.75756 17.875H16.2424C16.2471 17.875 16.2518 17.875 16.2565 17.875H21.9375V5.6875H4.0625ZM16.25 8.125C16.6987 8.125 17.0625 8.48877 17.0625 8.9375V14.625C17.0625 15.0737 16.6987 15.4375 16.25 15.4375C15.8013 15.4375 15.4375 15.0737 15.4375 14.625V8.9375C15.4375 8.48877 15.8013 8.125 16.25 8.125ZM13 9.75C13.4487 9.75 13.8125 10.1138 13.8125 10.5625V14.625C13.8125 15.0737 13.4487 15.4375 13 15.4375C12.5513 15.4375 12.1875 15.0737 12.1875 14.625V10.5625C12.1875 10.1138 12.5513 9.75 13 9.75ZM9.75 11.375C10.1987 11.375 10.5625 11.7388 10.5625 12.1875V14.625C10.5625 15.0737 10.1987 15.4375 9.75 15.4375C9.30127 15.4375 8.9375 15.0737 8.9375 14.625V12.1875C8.9375 11.7388 9.30127 11.375 9.75 11.375Z" fill="#000"/>
</g>
</svg>
