<svg width="26" height="26" viewBox="0 0 26 26" fill="none" xmlns="http://www.w3.org/2000/svg">
<path id="Vector (Stroke)" fill-rule="evenodd" clip-rule="evenodd" d="M3.90625 1.875C2.78442 1.875 1.875 2.78442 1.875 3.90625C1.875 5.02808 2.78442 5.9375 3.90625 5.9375C5.02808 5.9375 5.9375 5.02808 5.9375 3.90625C5.9375 2.78442 5.02808 1.875 3.90625 1.875ZM0.25 3.90625C0.25 1.88696 1.88696 0.25 3.90625 0.25C5.92554 0.25 7.5625 1.88696 7.5625 3.90625C7.5625 5.64629 6.34699 7.10243 4.71875 7.4719V7.5625C4.71875 8.45996 5.44629 9.1875 6.34375 9.1875H13.6562C14.5537 9.1875 15.2812 8.45996 15.2812 7.5625V7.4719C13.653 7.10243 12.4375 5.64629 12.4375 3.90625C12.4375 1.88696 14.0745 0.25 16.0938 0.25C18.113 0.25 19.75 1.88696 19.75 3.90625C19.75 5.64629 18.5345 7.10243 16.9062 7.4719V7.5625C16.9062 9.35743 15.4512 10.8125 13.6562 10.8125H10.8125V12.5281C12.4407 12.8976 13.6562 14.3537 13.6562 16.0938C13.6562 18.113 12.0193 19.75 10 19.75C7.98071 19.75 6.34375 18.113 6.34375 16.0938C6.34375 14.3537 7.55926 12.8976 9.1875 12.5281V10.8125H6.34375C4.54882 10.8125 3.09375 9.35743 3.09375 7.5625V7.4719C1.46551 7.10243 0.25 5.64629 0.25 3.90625ZM16.0938 1.875C14.9719 1.875 14.0625 2.78442 14.0625 3.90625C14.0625 5.02808 14.9719 5.9375 16.0938 5.9375C17.2156 5.9375 18.125 5.02808 18.125 3.90625C18.125 2.78442 17.2156 1.875 16.0938 1.875ZM10 14.0625C8.87817 14.0625 7.96875 14.9719 7.96875 16.0938C7.96875 17.2156 8.87817 18.125 10 18.125C11.1218 18.125 12.0312 17.2156 12.0312 16.0938C12.0312 14.9719 11.1218 14.0625 10 14.0625Z" fill="#000"/>
</svg>
