<svg width="26" height="26" viewBox="0 0 26 26" fill="none" xmlns="http://www.w3.org/2000/svg">
<g id="L/RocketLaunch">
<path id="Vector (Stroke)" fill-rule="evenodd" clip-rule="evenodd" d="M21.5101 4.48999C20.567 4.35397 18.2457 4.30273 15.8699 6.6785L9.54831 13.0001L13 16.4518L19.3216 10.1302C21.6974 7.75447 21.6461 5.43307 21.5101 4.48999ZM12.2517 18.0016L7.99855 13.7484L3.98535 12.9438C3.69708 12.8864 3.42904 12.7517 3.21121 12.5543C2.99318 12.3568 2.83287 12.1038 2.74737 11.8223C2.66188 11.5408 2.65441 11.2413 2.72577 10.9559C2.79712 10.6705 2.94463 10.4098 3.15254 10.2017L6.44159 6.92275C6.74126 6.61903 7.14842 6.44529 7.57519 6.43921L7.58677 6.43913H13.8112L14.7208 5.52945C17.5575 2.69275 20.4487 2.69437 21.7457 2.88216C22.0929 2.92968 22.415 3.08952 22.6628 3.33733C22.9106 3.58515 23.0704 3.90724 23.118 4.25437C23.3057 5.55138 23.3074 8.44258 20.4707 11.2793L19.561 12.189V18.4133L19.5609 18.4249C19.5548 18.8517 19.3811 19.2589 19.0773 19.5585L15.7985 22.8476C15.5903 23.0555 15.3296 23.203 15.0442 23.2743C14.7588 23.3457 14.4594 23.3382 14.1779 23.2527C13.8964 23.1672 13.6433 23.0069 13.4458 22.7889C13.2485 22.5711 13.1139 22.3038 13.0564 22.0155L12.2517 18.0016ZM17.936 13.814L13.8822 17.8677L14.6501 21.6979L17.936 18.4018V13.814ZM12.1862 8.06413H7.59826L7.59169 8.07083L4.30225 11.35L4.30351 11.3503L8.13239 12.1179L12.1862 8.06413ZM8.02173 16.1841C8.16476 16.6094 7.93591 17.0701 7.51059 17.2132C6.13334 17.6763 5.40141 18.8324 5.00989 20.0081C4.85443 20.475 4.7605 20.9244 4.70407 21.296C5.07568 21.2396 5.52512 21.1457 5.99197 20.9902C7.16767 20.5987 8.32381 19.8668 8.78696 18.4895C8.92999 18.0642 9.39073 17.8354 9.81606 17.9784C10.2414 18.1214 10.4702 18.5822 10.3272 19.0075C9.63253 21.0732 7.91446 22.0628 6.50539 22.532C5.79357 22.769 5.12718 22.886 4.64079 22.9444C4.39641 22.9737 4.19438 22.9886 4.05085 22.9961C3.97901 22.9999 3.9216 23.0019 3.88062 23.0029C3.86012 23.0034 3.84371 23.0037 3.83163 23.0038L3.8168 23.0039L3.81187 23.004L3.81004 23.004C3.81004 23.004 3.80864 23.004 3.80864 22.1915C2.99614 22.1915 2.99614 22.1908 2.99614 22.1908L2.99615 22.1882L2.99617 22.1833L2.99631 22.1685C2.99645 22.1564 2.99672 22.14 2.99723 22.1195C2.99825 22.0785 3.00021 22.0211 3.00399 21.9493C3.01154 21.8057 3.02641 21.6037 3.05572 21.3593C3.11407 20.8729 3.23109 20.2065 3.46813 19.4947C3.93736 18.0857 4.92691 16.3676 6.99263 15.6729C7.41796 15.5299 7.8787 15.7587 8.02173 16.1841ZM3.80864 22.1915L2.99614 22.1908C2.99614 22.6396 3.35991 23.004 3.80864 23.004L3.80864 22.1915Z" fill="#000"/>
</g>
</svg>
