<svg width="26" height="26" viewBox="0 0 26 26" fill="none" xmlns="http://www.w3.org/2000/svg">
<g id="L/UsersThree">
<path id="Vector (Stroke)" fill-rule="evenodd" clip-rule="evenodd" d="M6.69587 6.17012C6.24773 6.05522 5.77614 6.07023 5.33622 6.21339C4.89629 6.35656 4.50619 6.62196 4.21149 6.9786C3.9168 7.33523 3.72969 7.76837 3.67202 8.22739C3.61434 8.68642 3.6885 9.15238 3.88581 9.57083C4.08312 9.98928 4.39544 10.3429 4.78628 10.5905C5.17445 10.8363 5.62414 10.9674 6.08348 10.9687C6.08737 10.9687 6.09126 10.9687 6.09516 10.9687C6.54346 10.9695 6.90645 11.3332 6.9063 11.7815C6.90615 12.2298 6.54293 12.5933 6.09462 12.5937C6.09037 12.5938 6.08612 12.5938 6.08187 12.5937C5.26578 12.594 4.46089 12.7841 3.73088 13.1492C2.99771 13.5157 2.36034 14.0486 1.86961 14.7052C1.60098 15.0646 1.09182 15.1382 0.732387 14.8696C0.372952 14.6009 0.299346 14.0918 0.567984 13.7323C1.21029 12.8729 2.04452 12.1755 3.00415 11.6957C3.11916 11.6382 3.23559 11.584 3.35329 11.5332C2.96259 11.1769 2.64345 10.7462 2.41601 10.2639C2.08716 9.56647 1.96357 8.78987 2.05969 8.02482C2.15581 7.25978 2.46767 6.53788 2.95882 5.94349C3.44998 5.3491 4.10014 4.90676 4.83336 4.66816C5.56657 4.42955 6.35255 4.40454 7.09945 4.59603C7.84635 4.78753 8.52333 5.18763 9.05129 5.74959C9.57925 6.31154 9.93638 7.01214 10.081 7.76953C10.1651 8.2103 9.87598 8.63583 9.43521 8.71996C8.99443 8.8041 8.56891 8.51499 8.48477 8.07422C8.39803 7.61979 8.18375 7.19943 7.86697 6.86225C7.5502 6.52508 7.14401 6.28502 6.69587 6.17012ZM20.6639 6.21339C20.224 6.07023 19.7524 6.05522 19.3042 6.17012C18.8561 6.28502 18.4499 6.52508 18.1331 6.86225C17.8164 7.19943 17.6021 7.61979 17.5153 8.07422C17.4312 8.51499 17.0057 8.8041 16.5649 8.71996C16.1241 8.63583 15.835 8.2103 15.9191 7.76953C16.0637 7.01215 16.4209 6.31154 16.9488 5.74959C17.4768 5.18763 18.1537 4.78753 18.9007 4.59603C19.6476 4.40454 20.4335 4.42955 21.1667 4.66816C21.9 4.90676 22.5501 5.3491 23.0413 5.94349C23.5324 6.53788 23.8443 7.25978 23.9404 8.02482C24.0365 8.78987 23.9129 9.56647 23.5841 10.2639C23.3566 10.7462 23.0375 11.1769 22.6468 11.5332C22.7645 11.584 22.8809 11.6382 22.9959 11.6957C23.9556 12.1755 24.7898 12.8729 25.4321 13.7323C25.7008 14.0918 25.6271 14.6009 25.2677 14.8696C24.9083 15.1382 24.3991 15.0646 24.1305 14.7052C23.6398 14.0486 23.0024 13.5157 22.2692 13.1492C21.5392 12.7841 20.7343 12.594 19.9182 12.5937C19.914 12.5938 19.9097 12.5938 19.9055 12.5937C19.4572 12.5933 19.0939 12.2298 19.0938 11.7815C19.0937 11.3332 19.4566 10.9695 19.9049 10.9687C19.9083 10.9687 19.9117 10.9687 19.915 10.9687C20.3749 10.9677 20.8252 10.8366 21.2138 10.5905C21.6047 10.3429 21.917 9.98928 22.1143 9.57083C22.3116 9.15238 22.3858 8.68642 22.3281 8.22739C22.2704 7.76837 22.0833 7.33523 21.7886 6.9786C21.4939 6.62196 21.1038 6.35656 20.6639 6.21339ZM13 10.9687C11.2051 10.9687 9.75005 12.4238 9.75005 14.2187C9.75005 16.0137 11.2051 17.4687 13 17.4687C14.795 17.4687 16.25 16.0137 16.25 14.2187C16.25 12.4238 14.795 10.9687 13 10.9687ZM8.12505 14.2187C8.12505 11.5264 10.3077 9.34375 13 9.34375C15.6924 9.34375 17.875 11.5264 17.875 14.2187C17.875 15.7993 17.1229 17.2041 15.957 18.0949C16.2744 18.235 16.5826 18.398 16.8791 18.5832C18.0424 19.3097 18.9783 20.3485 19.5802 21.581C19.7771 21.9842 19.6098 22.4707 19.2066 22.6676C18.8033 22.8645 18.3168 22.6972 18.1199 22.294C17.6517 21.335 16.9235 20.5268 16.0183 19.9614C15.1131 19.3961 14.0673 19.0963 13 19.0963C11.9328 19.0963 10.887 19.3961 9.98184 19.9614C9.07665 20.5268 8.34844 21.335 7.88016 22.294C7.68327 22.6972 7.19677 22.8645 6.79354 22.6676C6.39031 22.4707 6.22305 21.9842 6.41994 21.581C7.02177 20.3485 7.95768 19.3097 9.12103 18.5832C9.4175 18.398 9.72571 18.235 10.0431 18.0949C8.87721 17.2041 8.12505 15.7993 8.12505 14.2187Z" fill="#000"/>
</g>
</svg>
