<svg width="26" height="26" viewBox="0 0 26 26" fill="none" xmlns="http://www.w3.org/2000/svg">
<g id="L/UsersFour">
<g id="Vector">
<path fill-rule="evenodd" clip-rule="evenodd" d="M8.12505 14.625C6.77885 14.625 5.68755 15.7163 5.68755 17.0625C5.68755 18.4087 6.77885 19.5 8.12505 19.5C9.47124 19.5 10.5625 18.4087 10.5625 17.0625C10.5625 15.7163 9.47124 14.625 8.12505 14.625ZM4.06255 17.0625C4.06255 14.8188 5.88139 13 8.12505 13C10.3687 13 12.1875 14.8188 12.1875 17.0625C12.1875 19.3062 10.3687 21.125 8.12505 21.125C5.88139 21.125 4.06255 19.3062 4.06255 17.0625Z" fill="#000"/>
<path fill-rule="evenodd" clip-rule="evenodd" d="M8.12505 21.125C7.30516 21.125 6.49653 21.3159 5.7632 21.6826C5.02987 22.0492 4.39198 22.5816 3.90005 23.2375C3.63081 23.5965 3.12153 23.6692 2.76255 23.4C2.40356 23.1308 2.33081 22.6215 2.60005 22.2625C3.24334 21.4048 4.07751 20.7086 5.03648 20.2291C5.99545 19.7496 7.05289 19.5 8.12505 19.5C9.19721 19.5 10.2546 19.7496 11.2136 20.2291C12.1726 20.7086 13.0068 21.4048 13.65 22.2625C13.9193 22.6215 13.8465 23.1308 13.4875 23.4C13.1286 23.6692 12.6193 23.5965 12.35 23.2375C11.8581 22.5816 11.2202 22.0492 10.4869 21.6826C9.75357 21.3159 8.94494 21.125 8.12505 21.125Z" fill="#000"/>
<path fill-rule="evenodd" clip-rule="evenodd" d="M8.12505 4.0625C6.77885 4.0625 5.68755 5.15381 5.68755 6.5C5.68755 7.84619 6.77885 8.9375 8.12505 8.9375C9.47124 8.9375 10.5625 7.84619 10.5625 6.5C10.5625 5.15381 9.47124 4.0625 8.12505 4.0625ZM4.06255 6.5C4.06255 4.25634 5.88139 2.4375 8.12505 2.4375C10.3687 2.4375 12.1875 4.25634 12.1875 6.5C12.1875 8.74366 10.3687 10.5625 8.12505 10.5625C5.88139 10.5625 4.06255 8.74366 4.06255 6.5Z" fill="#000"/>
<path fill-rule="evenodd" clip-rule="evenodd" d="M8.12505 10.5625C7.30516 10.5625 6.49653 10.7534 5.7632 11.1201C5.02987 11.4867 4.39198 12.0191 3.90005 12.675C3.63081 13.034 3.12153 13.1067 2.76255 12.8375C2.40356 12.5683 2.33081 12.059 2.60005 11.7C3.24334 10.8423 4.07751 10.1461 5.03648 9.66661C5.99545 9.18713 7.05289 8.9375 8.12505 8.9375C9.19721 8.9375 10.2546 9.18713 11.2136 9.66661C12.1726 10.1461 13.0068 10.8423 13.65 11.7C13.9193 12.059 13.8465 12.5683 13.4875 12.8375C13.1286 13.1067 12.6193 13.034 12.35 12.675C11.8581 12.0191 11.2202 11.4867 10.4869 11.1201C9.75357 10.7534 8.94494 10.5625 8.12505 10.5625Z" fill="#000"/>
<path fill-rule="evenodd" clip-rule="evenodd" d="M17.875 14.625C16.5289 14.625 15.4375 15.7163 15.4375 17.0625C15.4375 18.4087 16.5289 19.5 17.875 19.5C19.2212 19.5 20.3125 18.4087 20.3125 17.0625C20.3125 15.7163 19.2212 14.625 17.875 14.625ZM13.8125 17.0625C13.8125 14.8188 15.6314 13 17.875 13C20.1187 13 21.9375 14.8188 21.9375 17.0625C21.9375 19.3062 20.1187 21.125 17.875 21.125C15.6314 21.125 13.8125 19.3062 13.8125 17.0625Z" fill="#000"/>
<path fill-rule="evenodd" clip-rule="evenodd" d="M17.875 21.125C17.0552 21.125 16.2465 21.3159 15.5132 21.6826C14.7799 22.0492 14.142 22.5816 13.65 23.2375C13.3808 23.5965 12.8715 23.6692 12.5125 23.4C12.1536 23.1308 12.0808 22.6215 12.35 22.2625C12.9933 21.4048 13.8275 20.7086 14.7865 20.2291C15.7455 19.7496 16.8029 19.5 17.875 19.5C18.9472 19.5 20.0046 19.7496 20.9636 20.2291C21.9226 20.7086 22.7568 21.4048 23.4 22.2625C23.6693 22.6215 23.5965 23.1308 23.2375 23.4C22.8786 23.6692 22.3693 23.5965 22.1 23.2375C21.6081 22.5816 20.9702 22.0492 20.2369 21.6826C19.5036 21.3159 18.6949 21.125 17.875 21.125Z" fill="#000"/>
<path fill-rule="evenodd" clip-rule="evenodd" d="M17.875 4.0625C16.5289 4.0625 15.4375 5.15381 15.4375 6.5C15.4375 7.84619 16.5289 8.9375 17.875 8.9375C19.2212 8.9375 20.3125 7.84619 20.3125 6.5C20.3125 5.15381 19.2212 4.0625 17.875 4.0625ZM13.8125 6.5C13.8125 4.25634 15.6314 2.4375 17.875 2.4375C20.1187 2.4375 21.9375 4.25634 21.9375 6.5C21.9375 8.74366 20.1187 10.5625 17.875 10.5625C15.6314 10.5625 13.8125 8.74366 13.8125 6.5Z" fill="#000"/>
<path fill-rule="evenodd" clip-rule="evenodd" d="M17.875 10.5625C17.0552 10.5625 16.2465 10.7534 15.5132 11.1201C14.7799 11.4867 14.142 12.0191 13.65 12.675C13.3808 13.034 12.8715 13.1067 12.5125 12.8375C12.1536 12.5683 12.0808 12.059 12.35 11.7C12.9933 10.8423 13.8275 10.1461 14.7865 9.66661C15.7455 9.18713 16.8029 8.9375 17.875 8.9375C18.9472 8.9375 20.0046 9.18713 20.9636 9.66661C21.9226 10.1461 22.7568 10.8423 23.4 11.7C23.6693 12.059 23.5965 12.5683 23.2375 12.8375C22.8786 13.1067 22.3693 13.034 22.1 12.675C21.6081 12.0191 20.9702 11.4867 20.2369 11.1201C19.5036 10.7534 18.6949 10.5625 17.875 10.5625Z" fill="#000"/>
</g>
</g>
</svg>
