<svg width="26" height="26" viewBox="0 0 26 26" fill="none" xmlns="http://www.w3.org/2000/svg">
<g id="L/UserSwitch">
<g id="Vector">
<path fill-rule="evenodd" clip-rule="evenodd" d="M13 8.9374C11.2051 8.9374 9.75 10.3925 9.75 12.1874C9.75 13.9823 11.2051 15.4374 13 15.4374C14.7949 15.4374 16.25 13.9823 16.25 12.1874C16.25 10.3925 14.7949 8.9374 13 8.9374ZM16.0163 16.0175C17.1483 15.1248 17.875 13.741 17.875 12.1874C17.875 9.49501 15.6924 7.3124 13 7.3124C10.3076 7.3124 8.125 9.49501 8.125 12.1874C8.125 13.741 8.85171 15.1248 9.98375 16.0175C9.55728 16.1879 9.14432 16.3949 8.74966 16.6372C7.47089 17.4221 6.43445 18.5458 5.75521 19.8837C5.55207 20.2838 5.71176 20.7728 6.11187 20.9759C6.51199 21.1791 7.00103 21.0194 7.20417 20.6193C7.74756 19.549 8.57671 18.65 9.59973 18.0221C10.6225 17.3943 11.7994 17.0624 13 17.0624C14.2006 17.0624 15.3775 17.3943 16.4003 18.0221C17.4233 18.65 18.2524 19.549 18.7958 20.6193C18.999 21.0194 19.488 21.1791 19.8881 20.9759C20.2882 20.7728 20.4479 20.2838 20.2448 19.8837C19.5656 18.5458 18.5291 17.4221 17.2503 16.6372C16.8557 16.3949 16.4427 16.1879 16.0163 16.0175Z" fill="#000"/>
<path fill-rule="evenodd" clip-rule="evenodd" d="M2.67548 9.98788C2.99278 9.67058 3.50722 9.67058 3.82452 9.98788L6.26202 12.4254C6.57933 12.7427 6.57933 13.2571 6.26202 13.5744C5.94472 13.8917 5.43028 13.8917 5.11298 13.5744L3.25 11.7115L1.38702 13.5744C1.06972 13.8917 0.555277 13.8917 0.237976 13.5744C-0.0793253 13.2571 -0.0793253 12.7427 0.237976 12.4254L2.67548 9.98788Z" fill="#000"/>
<path fill-rule="evenodd" clip-rule="evenodd" d="M19.738 12.4254C20.0553 12.1081 20.5697 12.1081 20.887 12.4254L22.75 14.2884L24.613 12.4254C24.9303 12.1081 25.4447 12.1081 25.762 12.4254C26.0793 12.7427 26.0793 13.2571 25.762 13.5744L23.3245 16.0119C23.0072 16.3292 22.4928 16.3292 22.1755 16.0119L19.738 13.5744C19.4207 13.2571 19.4207 12.7427 19.738 12.4254Z" fill="#000"/>
<path fill-rule="evenodd" clip-rule="evenodd" d="M9.32011 3.08851C11.4592 2.29345 13.7983 2.21257 15.9872 2.85797C18.1761 3.50338 20.0972 4.84035 21.4627 6.66877C22.8283 8.49719 23.565 10.7187 23.5625 13.0008L22.75 12.9999H23.5625V13.0008V15.4374C23.5625 15.8861 23.1987 16.2499 22.75 16.2499C22.3013 16.2499 21.9375 15.8861 21.9375 15.4374V12.999C21.9396 11.068 21.3163 9.18828 20.1608 7.64115C19.0053 6.09403 17.3798 4.96274 15.5276 4.41663C13.6755 3.87052 11.6963 3.93896 9.88625 4.61171C8.07623 5.28445 6.53277 6.52531 5.48691 8.14856C5.24387 8.52577 4.74106 8.63455 4.36384 8.3915C3.98663 8.14846 3.87786 7.64565 4.1209 7.26843C5.35691 5.35005 7.181 3.88358 9.32011 3.08851Z" fill="#000"/>
<path fill-rule="evenodd" clip-rule="evenodd" d="M3.25 9.7499C3.69873 9.7499 4.0625 10.1137 4.0625 10.5624L4.0625 13.0008C4.06039 14.9318 4.68373 16.8115 5.83922 18.3587C6.99471 19.9058 8.62019 21.0371 10.4724 21.5832C12.3245 22.1293 14.3037 22.0608 16.1138 21.3881C17.9238 20.7154 19.4672 19.4745 20.5131 17.8512C20.7561 17.474 21.2589 17.3653 21.6362 17.6083C22.0134 17.8513 22.1221 18.3542 21.8791 18.7314C20.6431 20.6498 18.819 22.1162 16.6799 22.9113C14.5408 23.7064 12.2017 23.7872 10.0128 23.1418C7.82386 22.4964 5.90284 21.1595 4.53726 19.331C3.17178 17.5027 2.43511 15.2814 2.4375 12.9995V10.5624C2.4375 10.1137 2.80127 9.7499 3.25 9.7499Z" fill="#000"/>
</g>
</g>
</svg>
